<?xml version="1.0"?>
<svg xmlns="http://www.w3.org/2000/svg" viewBox="0 0 32 32">
    <path d="M 15 3.8125 L 13.8125 4 C 8.1711305 5.0046875 4 10.113622 4 16 C 4 22.604799 9.367925 27.982674 15.96875 28 C 15.97941 28.000028 15.98933 28 16 28 C 16.02668 28.000433 16.866338 28.01789 17.9375 27.875 C 19.025868 27.729813 20.376275 27.437911 21.5 26.6875 L 21.9375 26.40625 L 21.9375 25.875 L 21.9375 25.8125 L 21.9375 24.625 L 20.75 24.84375 C 20.1663 24.947519 19.593618 25 19 25 C 13.465466 25 9 20.534534 9 15 C 9 11.076594 11.193939 7.5728255 14.4375 5.9375 L 15 5.65625 L 15 5.03125 L 15 5 L 15 3.8125 z M 18.9375 5 C 18.4325 5 12.375 9.43475 12.375 11.46875 C 12.375 12.02575 14.875 12.2725 14.875 13.8125 C 14.875 13.9085 14.895 14.0835 14.875 14.1875 C 13.735 14.4605 12 15.42775 12 16.84375 C 12 17.30975 12.113 17.5615 12.25 17.6875 C 12.25 18.4595 13.14775 18.875 13.46875 18.875 C 13.46875 18.875 13.21875 18.60475 13.21875 18.21875 C 13.21875 17.83275 14.71875 17.21875 14.71875 17.21875 L 15.9375 17.21875 C 15.9375 17.21875 16.28125 17.2185 16.28125 18.3125 C 16.28125 19.4055 15.3125 19.99825 15.3125 20.90625 C 15.3125 21.81425 21.189 22.8245 22.5 22.9375 C 23.811 23.0505 24.59375 22.9375 24.59375 22.9375 L 24.65625 22.875 C 24.65625 22.875 24.5095 22.681 24.4375 22.625 C 24.3655 22.569 24.087 22.47125 23.75 22.40625 C 23.49 22.35725 21.30575 21.87875 20.59375 21.71875 C 21.36975 21.85375 23.4375 21.96875 23.4375 21.96875 L 23.46875 21.90625 C 23.46875 21.90625 23.33075 21.665 23.21875 21.625 C 23.10575 21.584 22.984 21.4785 22.75 21.4375 C 22.516 21.3965 20.48975 20.771 20.84375 20.875 C 21.19775 20.98 22.641 21.10525 22.625 21.03125 C 22.609 20.95925 22.44 20.77575 22.375 20.71875 C 22.311 20.66275 21.86375 20.51675 21.71875 20.46875 C 21.57375 20.42075 20.0625 19.8125 20.0625 19.8125 C 20.0625 19.8125 20.74525 19.85825 20.78125 19.78125 C 20.75725 19.65225 20.78225 19.584 20.65625 19.5 C 20.56925 19.442 19.78125 19.0625 19.78125 19.0625 L 20.5 19.03125 C 20.5 19.03125 20.56 18.929 20.5 18.875 C 20.231 18.636 19.3125 18.0625 19.3125 18.0625 L 19.8125 18.125 L 19.8125 17.9375 L 19.25 17.28125 L 19.375 17.15625 C 19.375 17.15625 19.3125 16.6395 19.3125 16.5625 C 20.3595 16.3535 21.328 15.4655 22.25 14.9375 C 22.539 14.7715 23.28125 14.5625 23.28125 14.5625 L 23.21875 14.375 C 23.21875 14.375 26.178 14.59375 26.25 14.59375 C 26.322 14.59375 26.84375 14.21225 26.84375 14.15625 C 26.84375 14.10025 26.5 13.78125 26.5 13.78125 C 26.5 13.78125 27.11525 13.73375 27.15625 13.71875 C 27.19725 13.70275 27.75 13.18275 27.75 13.09375 C 27.75 13.00475 27.125 12.65625 27.125 12.65625 C 27.125 12.65625 27.4905 12.516 27.5625 12.5 C 27.6345 12.484 28.023 11.67775 28 11.59375 C 27.976 11.50375 27.55875 11.30225 27.09375 11.28125 C 26.91475 11.33225 26.5 11.46875 26.5 11.46875 C 26.5 11.46875 26.76575 10.882 26.71875 10.75 C 26.68875 10.666 25.9845 10.52175 25.8125 10.59375 C 25.7025 10.64075 25.32375 10.89875 25.34375 10.84375 C 25.42175 10.62775 25.40625 10.34375 25.40625 10.34375 C 25.40625 10.34375 25.2305 10.25 25.0625 10.25 C 24.8945 10.25 24.6875 10.3125 24.6875 10.3125 L 22.4375 12.125 C 22.4375 12.125 22.3425 12.035 22.3125 12 C 22.2075 12.169 21.576 12.55375 21.375 12.59375 C 21.174 12.63375 19.33975 12.58875 18.09375 12.96875 L 17.84375 12.375 L 17.625 12.375 L 17.75 11.5 C 17.75 11.5 17.72225 11.4375 17.65625 11.4375 C 17.58525 11.4375 17.28125 11.75 17.28125 11.75 L 17.8125 10.5 C 17.8125 10.5 17.80775 10.3125 17.71875 10.3125 C 17.56875 10.3125 16.96875 10.90625 16.96875 10.90625 L 17.59375 9.90625 C 17.59375 9.90625 17.6615 9.36775 17.4375 9.46875 C 17.3145 9.52475 16.8125 9.9375 16.8125 9.9375 L 18.34375 7.90625 C 18.34375 7.90625 18.48425 7.50125 18.28125 7.53125 C 18.12125 7.55525 16.90625 8.6875 16.90625 8.6875 L 18.5625 6.8125 C 18.5625 6.8125 18.69825 6.35025 18.53125 6.40625 C 18.15625 6.53225 16.4375 7.9375 16.4375 7.9375 C 16.4375 7.9375 18.941 5.5055 19 5.4375 C 19.068 5.3565 19.1015 5 18.9375 5 z M 8.46875 9.3125 C 7.5736942 11.031021 7 12.952715 7 15 C 7 19.607173 9.7111415 23.489814 13.53125 25.5 C 9.227614 24.382849 6 20.659652 6 16 C 6 13.467451 6.938629 11.114104 8.46875 9.3125 z M 13.09375 16.625 C 13.20975 16.625 13.3125 16.72775 13.3125 16.84375 C 13.3125 16.95875 13.20875 17.03125 13.09375 17.03125 C 12.97775 17.03125 12.90625 16.95975 12.90625 16.84375 C 12.90625 16.72875 12.97775 16.625 13.09375 16.625 z"/>
</svg>
